<mxfile host="app.diagrams.net" modified="2024-01-10T08:50:46.101Z" agent="Mozilla/5.0 (Windows NT 10.0; Win64; x64) AppleWebKit/537.36 (KHTML, like Gecko) Chrome/120.0.0.0 Safari/537.36" version="22.1.18" etag="C_VJ0Yq3AxlFaAQeM6Zl" type="github">
  <diagram name="Страница — 1" id="y0Rd5KvWQnEHnxKVQwQ8">
    <mxGraphModel>
      <root>
        <mxCell id="0" />
        <mxCell id="1" parent="0" />
      </root>
    </mxGraphModel>
  </diagram>
</mxfile>
